<?xml version="1.0" encoding="UTF-8"?><svg id="b" xmlns="http://www.w3.org/2000/svg" width="144.6821" height="129.1221" viewBox="0 0 144.6821 129.1221"><g id="c"><g id="d"><path d="M72.0936,25.1739l.2884,2.1959,6.66,35.6246c-.0727,3.0808-1.113,5.6292-3.2905,7.802-1.1718,1.1899-2.7527,2.2211-4.5605,2.5642l-25.5981,4.8583c-2.2003.4176-4.2107.1222-6.1179-.7395-.3421.2888-.3102.7695-.1344,1.3299l-1.2959-.0616c1.2841,2.0446,5.4714,3.274,7.8615,2.8359l27.5987-5.0591c4.4414-.8142,7.9462-4.0136,8.8597-8.1695.5032-2.2893.2043-4.46-.1555-6.7345l-.438-2.7688-3.8083-20.239-2.3817-12.6011c.0614-.3522.1591-.9666-.1941-1.2733l18.0354-1.894c1.0529-.1106,1.9153.3039,2.5047,1.0883.5829.7757.504,1.7591.5036,2.746l-.0216,50.9984c-.0005,1.2-1.0908,2.3644-2.22,2.4783l-29.1319,2.9371-5.1788,1.5058-.539.1054c-.1985.0388-.369.0288-.5707.039l-18.8503.9491c-1.5481.0779-2.8933.8358-4.214,1.5186l-1.3679.6787.0267-.231.1756-2.7403.1214-11.6334c-.8162-1.4494-.9964-2.835-1.2994-4.4657l-7.4096-39.8827c-.0865-5.3361,3.409-9.8152,8.6152-10.776l25.0641-4.6254c5.6729-1.0469,11.2215,3.3115,11.7885,8.8045.1043,1.0107.5563,1.9359.6744,2.8349ZM60.3975,18.6655l-24.6421,4.5661c-3.4645.642-4.9864,3.5438-4.3631,6.8602l7.4225,39.4904c.5552,2.9538,3.7199,3.9743,6.3503,3.4504l9.1132-1.8152,4.4983-.7466,10.3578-1.9429c2.6618-.4993,5.119-2.7266,4.5706-5.6963l-7.333-39.7086c-.5472-2.9634-2.9053-5.0262-5.9745-4.4575Z" fill="#f7bdcb"/><path d="M107.4472,34.7805l.5384,31.8345.0181,1.1643.0037.1943.0058.1993-.5345,5.7069-.1128,14.0667c-.01,1.246-1.3407,1.9083-1.9514,2.6967-.026.0693-.0178.099.0156.0443l-.0156-.0443-.2593.017c-1.6182-.263-3.2516.0127-4.9499.0048l-8.8959-.0413-8.1077.025-8.8698.0452-7.9471-.0654-22.9272-.0989c-2.3886-.0103-2.6911-2.1499-3.2465-3.7944-.1063-.3146-.0239-.7689-.2925-1.0436l18.8503-.9491c.2018-.0102.3723-.0002.5707-.039l.539-.1054-.0175.2332,4.2049.8718,35.312.0045c1.5019.0002,3.1938-1.237,3.1949-2.8175l.0366-50.9031.1924-1.7526.7933.2165c1.5713,0,3.3244.516,3.758,2.3067l.094,2.0229Z" fill="#f7e5a4"/><path d="M102.8019,30.2344l-.1924,1.7526-.0366,50.9031c-.0011,1.5805-1.693,2.8177-3.1949,2.8175l-35.312-.0045-4.2049-.8718.0175-.2332,5.1788-1.5058,29.1319-2.9371c1.1291-.1138,2.2195-1.2783,2.22-2.4783l.0216-50.9984.7693.1305c.248.0401.5613-.1105.9117.1855,1.0997-.0875,2.4287-.1957,3.4136.6345.7415.625,1.3668,1.7831,1.2765,2.6053Z" fill="#fbe699"/><path d="M39.9185,85.6917c.2687.2747.1863.7289.2925,1.0436.5554,1.6446.858,3.7841,3.2465,3.7944l22.9272.0989,7.9471.0654,8.8698-.0452,8.1077-.025,8.8959.0413c1.6983.0079,3.3317-.2678,4.9499-.0048l.2593-.017.0156.0443-.0156-.0443c-.0396.0512-.0247.1353-.0288.2123l-.1257,2.3305c-.0597,1.1078-1.0311,2.3797-2.4254,2.3795l-63.9696-.0121c-3.0939-.0006-4.9389-4.1095-4.5284-7.6644l.0267-.231-.0267.231,1.3679-.6787c1.3208-.6828,2.666-1.4407,4.214-1.5186Z" fill="#f29db6"/><path d="M75.3871,24.7383c.3532.3067.2554.9211.1941,1.2733l2.3817,12.6011,3.8083,20.239.438,2.7688c.3598,2.2745.6588,4.4452.1555,6.7345-.9135,4.1559-4.4183,7.3553-8.8597,8.1695l-27.5987,5.0591c-2.3901.4381-6.5774-.7913-7.8615-2.8359l1.2959.0616c-.1757-.5604-.2077-1.0411.1344-1.3299,1.9072.8617,3.9176,1.1571,6.1179.7395l25.5981-4.8583c1.8078-.3431,3.3887-1.3743,4.5605-2.5642,2.1775-2.1729,3.2178-4.7213,3.2905-7.802l-6.66-35.6246-.2884-2.1959.7872-.1802,2.5063-.2554Z" fill="#f29bb5"/><path d="M107.9856,66.615l-.5384-31.8345.9481.1156c3.1126.3788,7.3178.7803,6.5588,4.2694l-5.0959,23.4271-1.562,4.057-.3106-.0346Z" fill="#abdaec"/><path d="M80.9642,10.5538c1.7599-.3498,3.3533.1136,4.7286,1.2556.301-.1153.6102.0306.8875.079l-.6948,3.2619c-.6788,1.8196-2.4313,2.6385-4.2351,2.7648-2.1918.1535-4.4506-1.3519-4.2277-3.6509.1977-2.0388,1.8156-3.3674,3.5415-3.7104Z" fill="#a8daec"/><path d="M87.7362,6.0168l.6831-3.9611c.0813-.4716.4728-.8936.8644-.9731.3399-.069.9334.0235,1.2673.419l2.9323,3.473c1.142,1.6391,1.0344,3.7638.2584,5.5037l-3.9246-3.4262-1.2277-.5498c-.2838-.1271-.5306-.5102-.887-.291l.0337-.1944Z" fill="#a8daf0"/><path d="M102.8917,20.4365c-.5876.0297-1.1865.0576-1.5616-.379-1.1713-1.3633,1.4449-3.3434,1.5246-4.908.0755-1.4803-2.0776-3.8428-.8283-4.8587,1.218-.9905,2.497.4004,4.5343.3882,1.1469-.0069,2.1821-1.9984,4.1669-2.8761l.953.8259.7126,4.0263c.6867,1.3949,3.9497,1.7717,3.7952,3.3937-.1558,1.6354-3.2741,1.5891-4.1336,2.8359-.7584,1.1-.5281,2.6163-1.0826,3.8293-.376.8225-1.4864,1.0501-2.0963.3614l-1.5312-1.729c-1.4765-1.6672-2.1076-1.0285-4.453-.9098Z" fill="#fbe699" stroke="#7993c4" stroke-linecap="round" stroke-linejoin="round" stroke-width="2.1233"/><path d="M54.0464,35.6695c1.6661-.3955,3.2687-.0007,4.3567,1.219,3.3344,3.7379-.815,10.1989-5.057,13.3156-4.5881-1.186-10.2188-4.8692-9.8865-9.1046.1858-2.368,1.9238-4.036,4.2774-4.1383,1.1756-.0511,2.2624.8481,3.384,1.1206.9317-1.0607,1.6777-2.1161,2.9253-2.4123Z" fill="#f8bccb" stroke="#7993c4" stroke-linecap="round" stroke-linejoin="round" stroke-width="2.1233"/><path d="M62.7334,50.5089c1.1146-.2891,2.0957-.0018,2.8162.8677.4969.5997.91,1.869.3275,2.8184l-8.2676,13.4742-1.3509,1.965-7.5971-5.3082c-1.3303-.9295-1.7517-2.3843-.9635-3.6992.6881-1.1479,2.3786-1.6164,3.6708-.7779l3.1951,2.0731,1.3559-1.5873,5.3801-8.6605c.3437-.5532.8377-1.0106,1.4336-1.1652Z" fill="#fbe699" stroke="#7993c4" stroke-linecap="round" stroke-linejoin="round" stroke-width="2.1233"/><path d="M72.8808,24.9937l2.5063-.2554,18.0354-1.894c1.0529-.1106,1.9153.3039,2.5047,1.0883.5829.7757.504,1.7591.5036,2.746l-.0216,50.9984c-.0005,1.2-1.0908,2.3644-2.22,2.4783l-29.1319,2.9371-5.1788,1.5058-.539.1054-.5601.0481" fill="none" stroke="#7993c4" stroke-linecap="round" stroke-linejoin="round" stroke-width="2.1233"/><path d="M88.5895,6.5021l1.2277.5498,3.9246,3.4262c.776-1.7399.8836-3.8646-.2584-5.5037l-2.9323-3.473c-.3339-.3955-.9274-.4879-1.2673-.419-.3916.0795-.7831.5015-.8644.9731l-.6831,3.9611-.0337.1944-1.1221,5.6772-.6948,3.2619c-.6788,1.8196-2.4313,2.6385-4.2351,2.7648-2.1918.1535-4.4506-1.3519-4.2277-3.6509.1977-2.0388,1.8156-3.3674,3.5415-3.7104,1.7599-.3498,3.3533.1136,4.7286,1.2556" fill="none" stroke="#7993c4" stroke-linecap="round" stroke-linejoin="round" stroke-width="2.1233"/><path d="M103.5951,30.4509c1.5713,0,3.3244.516,3.758,2.3067l.094,2.0229.5384,31.8345.0181,1.1643.0095.3937-.5345,5.7069-.1128,14.0667c-.01,1.246-1.3407,1.9083-1.9514,2.6967" fill="none" stroke="#7993c4" stroke-linecap="round" stroke-linejoin="round" stroke-width="2.1233"/><path d="M35.776,75.0413c1.1731.9254,2.3467,1.8271,3.6991,2.4382,1.9072.8617,3.9176,1.1571,6.1179.7395l25.5981-4.8583c1.8078-.3431,3.3887-1.3743,4.5605-2.5642,2.1775-2.1729,3.2178-4.7213,3.2905-7.802l-6.66-35.6246-.2884-2.1959c-.1181-.899-.5701-1.8243-.6744-2.8349-.5671-5.493-6.1156-9.8514-11.7885-8.8045l-25.0641,4.6254c-5.2063.9608-8.7017,5.4399-8.6152,10.776l7.4096,39.8827c.303,1.6307.4831,3.0163,1.2994,4.4657l-.1214,11.6334-.1756,2.7403-.0267.231c-.4105,3.555,1.4345,7.6638,4.5284,7.6644l63.9696.0121c1.3943.0003,2.3657-1.2717,2.4254-2.3795l.1257-2.3305.0037-.2044" fill="none" stroke="#7993c4" stroke-linecap="round" stroke-linejoin="round" stroke-width="2.1233"/><path d="M108.3952,34.8961c3.1126.3788,7.3178.7803,6.5588,4.2694l-5.0959,23.4271-1.562,4.057c-.1589.4128-.3026.8625-.2887,1.324" fill="none" stroke="#7993c4" stroke-linecap="round" stroke-linejoin="round" stroke-width="2.1233"/><path d="M97.2,26.8091c.248.0401.5613-.1105.9117.1855,1.0997-.0875,2.4287-.1957,3.4136.6345.7415.625,1.3668,1.7831,1.2765,2.6053l-.1924,1.7526-.0366,50.9031c-.0011,1.5805-1.693,2.8177-3.1949,2.8175l-35.312-.0045-4.2049-.8718-1.0922-.0888-18.8503.9491c-1.5481.0779-2.8933.8358-4.214,1.5186" fill="none" stroke="#7993c4" stroke-linecap="round" stroke-linejoin="round" stroke-width="2.1233"/><path d="M40.2111,86.7352c.5554,1.6446.858,3.7841,3.2465,3.7944l22.9272.0989,7.9471.0654,8.8698-.0452,8.1077-.025,8.8959.0413c1.6983.0079,3.3317-.2678,4.9499-.0048.096-.0405.202-.0563.2749.0273" fill="none" stroke="#7993c4" stroke-linecap="round" stroke-linejoin="round" stroke-width="2.1233"/><path d="M1.2656,110.1162c0-1.0127.4834-1.5186,1.3804-1.5186h.4604c.9204,0,1.4268.5059,1.4268,1.5186v5.2461l4.1875-5.6602c.5063-.8291,1.1279-1.1279,1.7949-1.1045,1.1504.0225,1.9102.9893,1.8179,1.1963l-4.6938,6.1436,4.855,6.5117c.1147.2305-.6675,1.1963-1.8867,1.2197-.5986.0234-1.2886-.207-1.772-1.0352l-4.3027-5.8682v5.3848c0,.9893-.5063,1.5186-1.4268,1.5186h-.4604c-.897,0-1.3804-.5293-1.3804-1.5186v-12.0342Z" fill="#f788a8"/><path d="M14.1968,122.1504v-11.5977c0-1.1729.6211-1.8633,1.7026-1.8633h3.4746c3.5898,0,5.5454,1.749,5.5454,5.0391s-1.8867,5.0166-5.4766,5.0166h-1.9556v3.4053c0,.9434-.5063,1.5186-1.4497,1.5186h-.4604c-.874,0-1.3804-.5293-1.3804-1.5186ZM21.7212,113.7519c0-1.6338-.8286-2.5088-2.416-2.5088h-1.8638v5.0166h1.8867c1.5645,0,2.3931-.874,2.3931-2.5078Z" fill="#f788a8"/><path d="M26.1846,116.1445c0-4.7402,2.7153-7.7314,6.811-7.7314s6.811,2.9688,6.811,7.709c0,4.7627-2.7153,7.7314-6.811,7.7314-4.1187,0-6.811-2.9688-6.811-7.709ZM36.4243,116.1445c0-3.2676-1.3579-4.8779-3.4287-4.8779-2.0938,0-3.4517,1.5645-3.4517,4.8555,0,3.2666,1.3809,4.8545,3.4517,4.8545,2.0942,0,3.4287-1.5645,3.4287-4.832Z" fill="#f788a8"/><path d="M41.8311,122.1504v-11.5977c0-1.1729.6211-1.8633,1.7026-1.8633h3.4746c3.5894,0,5.5454,1.749,5.5454,5.0391s-1.8867,5.0166-5.4766,5.0166h-1.9556v3.4053c0,.9434-.5063,1.5186-1.4497,1.5186h-.4604c-.874,0-1.3804-.5293-1.3804-1.5186ZM49.3555,113.7519c0-1.6338-.8286-2.5088-2.416-2.5088h-1.8643v5.0166h1.8872c1.5645,0,2.3931-.874,2.3931-2.5078Z" fill="#f788a8"/><path d="M64.1963,108.4131c1.8643,0,3.2217.5986,4.0498,1.335.6904.5977,1.0586,1.3574,1.0586,2.002,0,1.7256-2.0479,1.9092-2.186,1.7949-.5059-1.3809-1.5874-2.209-2.9224-2.209-2.0244,0-3.4053,1.6562-3.4053,4.8086,0,3.1299,1.4038,4.7861,3.4287,4.7861,1.5415,0,2.5078-.9668,2.9219-2.416.0464-.1152,2.2554-.0234,2.2554,1.7715,0,.668-.3682,1.4961-1.1045,2.1406-.8745.8281-2.2783,1.4268-4.165,1.4268-4.0957,0-6.7651-3.0605-6.7651-7.6631s2.6924-7.7773,6.834-7.7773Z" fill="#f788a8"/><path d="M70.6616,116.1445c0-4.7402,2.7158-7.7314,6.8115-7.7314s6.8105,2.9688,6.8105,7.709c0,4.7627-2.7148,7.7314-6.8105,7.7314-4.1191,0-6.8115-2.9688-6.8115-7.709ZM80.9019,116.1445c0-3.2676-1.3584-4.8779-3.4287-4.8779-2.0938,0-3.4521,1.5645-3.4521,4.8555,0,3.2666,1.3809,4.8545,3.4521,4.8545,2.0938,0,3.4287-1.5645,3.4287-4.832Z" fill="#f788a8"/><path d="M86.3081,121.7363v-11.6201c0-1.0361.4834-1.5186,1.3809-1.5186h.4834c.9199,0,1.4268.4824,1.4268,1.5186v10.4697h4.6016c1.0127,0,1.5186.4824,1.5186,1.4033v.1377c0,.9434-.5059,1.4502-1.5186,1.4502h-6.1895c-1.082,0-1.7031-.6445-1.7031-1.8408Z" fill="#f788a8"/><path d="M97.3755,121.7363v-11.6201c0-1.0361.4834-1.5186,1.3809-1.5186h.4834c.9199,0,1.4268.4824,1.4268,1.5186v10.4697h4.6016c1.0127,0,1.5186.4824,1.5186,1.4033v.1377c0,.9434-.5059,1.4502-1.5186,1.4502h-6.1895c-1.082,0-1.7031-.6445-1.7031-1.8408Z" fill="#f788a8"/><path d="M108.4429,121.7363v-11.1836c0-1.1963.6211-1.8633,1.7031-1.8633h7.1787c1.0361,0,1.5186.4375,1.5186,1.3115v.1377c0,.9209-.4824,1.3115-1.5186,1.3115h-5.6143v3.2217h3.958c1.0811,0,1.5186.3916,1.5186,1.2197v.1377c0,.8975-.46,1.3115-1.5186,1.3115h-3.958v3.4746h5.7295c1.0352,0,1.5186.3682,1.5186,1.2197v.1611c0,.9209-.4834,1.3809-1.5186,1.3809h-7.2939c-1.082,0-1.7031-.6445-1.7031-1.8408Z" fill="#f788a8"/><path d="M126.9429,108.4131c1.8643,0,3.2217.5986,4.0498,1.335.6904.5977,1.0586,1.3574,1.0586,2.002,0,1.7256-2.0479,1.9092-2.1865,1.7949-.5059-1.3809-1.5869-2.209-2.9219-2.209-2.0244,0-3.4053,1.6562-3.4053,4.8086,0,3.1299,1.4033,4.7861,3.4287,4.7861,1.541,0,2.5078-.9668,2.9219-2.416.0459-.1152,2.2549-.0234,2.2549,1.7715,0,.668-.3682,1.4961-1.1045,2.1406-.874.8281-2.2783,1.4268-4.165,1.4268-4.0957,0-6.7646-3.0605-6.7646-7.6631s2.6924-7.7773,6.834-7.7773Z" fill="#f788a8"/><path d="M137.1821,111.6572h-2.7383c-.9902,0-1.5186-.5059-1.5186-1.4492v-.1377c0-.9209.5283-1.3809,1.5186-1.3809h8.7207c1.0127,0,1.5186.46,1.5186,1.3809v.1377c0,.9434-.5059,1.4492-1.5186,1.4492h-2.6924v10.4932c0,.9893-.5293,1.5186-1.4727,1.5186h-.46c-.8975,0-1.3574-.5293-1.3574-1.5186v-10.4932Z" fill="#f788a8"/></g></g></svg>